<svg width="222" height="222" fill="none" xmlns="http://www.w3.org/2000/svg"><mask id="mask0_103_6487" style="mask-type:alpha" maskUnits="userSpaceOnUse" x="0" y="0" width="222" height="222"><circle cx="111" cy="111" r="111" fill="#fff"/></mask><g mask="url(#mask0_103_6487)" fill="#4F908A"><path d="M0-2.235a2.235 2.235 0 11-4.47 0 2.235 2.235 0 014.47 0zm28.309 0a2.235 2.235 0 11-4.47 0 2.235 2.235 0 014.47 0zm28.308 0a2.235 2.235 0 11-4.47 0 2.235 2.235 0 014.47 0zm28.309 0a2.235 2.235 0 11-4.47 0 2.235 2.235 0 014.47 0zm28.309 0a2.235 2.235 0 11-4.47 0 2.235 2.235 0 014.47 0zm28.309 0a2.235 2.235 0 11-4.47 0 2.235 2.235 0 014.47 0zm28.308 0a2.235 2.235 0 11-4.47 0 2.235 2.235 0 014.47 0zm28.309 0a2.235 2.235 0 11-4.47 0 2.235 2.235 0 014.47 0zm28.309 0a2.235 2.235 0 11-4.47 0 2.235 2.235 0 014.47 0zM0 26.074a2.235 2.235 0 11-4.47 0 2.235 2.235 0 014.47 0zm28.309 0a2.235 2.235 0 11-4.47 0 2.235 2.235 0 014.47 0zm28.308 0a2.235 2.235 0 11-4.47 0 2.235 2.235 0 014.47 0zm28.309 0a2.235 2.235 0 11-4.47 0 2.235 2.235 0 014.47 0zm28.309 0a2.235 2.235 0 11-4.47 0 2.235 2.235 0 014.47 0zm28.309 0a2.235 2.235 0 11-4.47 0 2.235 2.235 0 014.47 0zm28.308 0a2.235 2.235 0 11-4.47 0 2.235 2.235 0 014.47 0zm28.309 0a2.235 2.235 0 11-4.47 0 2.235 2.235 0 014.47 0zm28.309 0a2.235 2.235 0 11-4.47 0 2.235 2.235 0 014.47 0zM0 54.383a2.235 2.235 0 11-4.47 0 2.235 2.235 0 014.47 0zm28.309 0a2.235 2.235 0 11-4.47 0 2.235 2.235 0 014.47 0zm28.308 0a2.235 2.235 0 11-4.47 0 2.235 2.235 0 014.47 0zm28.309 0a2.235 2.235 0 11-4.47 0 2.235 2.235 0 014.47 0zm28.309 0a2.235 2.235 0 11-4.47-.001 2.235 2.235 0 014.47 0zm28.309 0a2.235 2.235 0 11-4.47-.001 2.235 2.235 0 014.47 0zm28.308 0a2.235 2.235 0 11-4.47 0 2.235 2.235 0 014.47 0zm28.309 0a2.235 2.235 0 11-4.47-.001 2.235 2.235 0 014.47 0zm28.309 0a2.235 2.235 0 11-4.47-.001 2.235 2.235 0 014.47 0zM0 82.691a2.235 2.235 0 11-4.47 0 2.235 2.235 0 014.47 0zm28.309 0a2.235 2.235 0 11-4.47 0 2.235 2.235 0 014.47 0zm28.308 0a2.235 2.235 0 11-4.47 0 2.235 2.235 0 014.47 0zm28.309 0a2.235 2.235 0 11-4.47 0 2.235 2.235 0 014.47 0zm28.309 0a2.235 2.235 0 11-4.47 0 2.235 2.235 0 014.47 0zm28.309 0a2.235 2.235 0 11-4.47 0 2.235 2.235 0 014.47 0zm28.308 0a2.235 2.235 0 11-4.47.001 2.235 2.235 0 014.47 0zm28.309 0a2.235 2.235 0 11-4.47 0 2.235 2.235 0 014.47 0zm28.309 0a2.235 2.235 0 11-4.47 0 2.235 2.235 0 014.47 0zM0 111a2.235 2.235 0 11-4.47 0A2.235 2.235 0 010 111zm28.309 0a2.235 2.235 0 11-4.47 0 2.235 2.235 0 014.47 0zm28.308 0a2.235 2.235 0 11-4.47 0 2.235 2.235 0 014.47 0zm28.309 0a2.235 2.235 0 11-4.47 0 2.235 2.235 0 014.47 0zm28.309 0a2.235 2.235 0 11-4.47 0 2.235 2.235 0 014.47 0zm28.309 0a2.235 2.235 0 11-4.47 0 2.235 2.235 0 014.47 0zm28.308 0a2.235 2.235 0 11-4.47 0 2.235 2.235 0 014.47 0zm28.309 0a2.235 2.235 0 11-4.47 0 2.235 2.235 0 014.47 0zm28.309 0a2.235 2.235 0 11-4.47 0 2.235 2.235 0 014.47 0zM0 139.309a2.235 2.235 0 11-4.47 0 2.235 2.235 0 014.47 0zm28.309 0a2.235 2.235 0 11-4.47 0 2.235 2.235 0 014.47 0zm28.308 0a2.235 2.235 0 11-4.47 0 2.235 2.235 0 014.47 0zm28.309 0a2.235 2.235 0 11-4.47 0 2.235 2.235 0 014.47 0zm28.309 0a2.235 2.235 0 11-4.47 0 2.235 2.235 0 014.47 0zm28.309 0a2.235 2.235 0 11-4.47 0 2.235 2.235 0 014.47 0zm28.308 0a2.235 2.235 0 11-4.47 0 2.235 2.235 0 014.47 0zm28.309 0a2.235 2.235 0 11-4.47 0 2.235 2.235 0 014.47 0zm28.309 0a2.235 2.235 0 11-4.47 0 2.235 2.235 0 014.47 0zM0 167.617a2.235 2.235 0 11-4.47 0 2.235 2.235 0 014.47 0zm28.309 0a2.235 2.235 0 11-4.47 0 2.235 2.235 0 014.47 0zm28.308 0a2.235 2.235 0 11-4.469 0 2.235 2.235 0 014.47 0zm28.309 0a2.235 2.235 0 11-4.469 0 2.235 2.235 0 014.47 0zm28.309 0a2.235 2.235 0 11-4.47 0 2.235 2.235 0 014.47 0zm28.309 0a2.235 2.235 0 11-4.47 0 2.235 2.235 0 014.47 0zm28.308 0a2.234 2.234 0 11-4.468.002 2.234 2.234 0 014.468-.002zm28.309 0a2.235 2.235 0 11-4.47 0 2.235 2.235 0 014.47 0zm28.309 0a2.235 2.235 0 11-4.47 0 2.235 2.235 0 014.47 0zM0 195.926a2.235 2.235 0 11-4.47 0 2.235 2.235 0 014.47 0zm28.309 0a2.235 2.235 0 11-4.47 0 2.235 2.235 0 014.47 0zm28.308 0a2.235 2.235 0 11-4.47 0 2.235 2.235 0 014.47 0zm28.309 0a2.235 2.235 0 11-4.47 0 2.235 2.235 0 014.47 0zm28.309 0a2.235 2.235 0 11-4.47 0 2.235 2.235 0 014.47 0zm28.309 0a2.235 2.235 0 11-4.47 0 2.235 2.235 0 014.47 0zm28.308 0a2.235 2.235 0 11-4.47 0 2.235 2.235 0 014.47 0zm28.309 0a2.235 2.235 0 11-4.47 0 2.235 2.235 0 014.47 0zm28.309 0a2.235 2.235 0 11-4.47 0 2.235 2.235 0 014.47 0zM0 224.235a2.235 2.235 0 11-4.47 0 2.235 2.235 0 014.47 0zm28.309 0a2.235 2.235 0 11-4.47 0 2.235 2.235 0 014.47 0zm28.308 0a2.235 2.235 0 11-4.47 0 2.235 2.235 0 014.47 0zm28.309 0a2.235 2.235 0 11-4.47 0 2.235 2.235 0 014.47 0zm28.309 0a2.235 2.235 0 11-4.47 0 2.235 2.235 0 014.47 0zm28.309 0a2.235 2.235 0 11-4.47 0 2.235 2.235 0 014.47 0zm28.308 0a2.235 2.235 0 11-4.47 0 2.235 2.235 0 014.47 0zm28.309 0a2.235 2.235 0 11-4.47 0 2.235 2.235 0 014.47 0zm28.309 0a2.235 2.235 0 11-4.47 0 2.235 2.235 0 014.47 0z"/></g></svg>