<svg width="149" height="149" fill="none" xmlns="http://www.w3.org/2000/svg"><mask id="mask0_103_6491" style="mask-type:alpha" maskUnits="userSpaceOnUse" x="0" y="0" width="149" height="149"><circle cx="74.5" cy="74.5" r="74.5" fill="#fff"/></mask><g mask="url(#mask0_103_6491)" fill-rule="evenodd" clip-rule="evenodd" fill="#919EAB"><path d="M104.337 38.149l43.415-23.435.342.633-43.414 23.435-.343-.633zM71.183 56.142l30.631-16.554.343.633-30.631 16.555-.343-.634zM27.939 79.174l40-21.592.344.633-40.001 21.593-.343-.634zm-11.533 6.119l7.928-4.319.345.632-7.928 4.319-.345-.632zM0 93.887l13.884-7.515.344.633L.344 94.52 0 93.887zM88.12 36.35l59.63-32.432.344.632-59.63 32.432-.346-.632zM64.688 49.31l19.46-11.157.36.624-19.46 11.156-.36-.624zm-30.98 16.187l26.668-14.035.336.637-26.668 14.035-.336-.637zM13.883 76.296l15.135-8.277.346.632-15.135 8.277-.346-.632zM.005 83.088l10.28-5.356.334.639-10.28 5.355-.334-.638zm52.801-37.383L138.573.001l.34.635L53.145 46.34l-.34-.635zM30.822 57.942l18.018-9.717.343.633-18.019 9.717-.342-.633zm-11.888 6.115l8.289-4.318.333.638-8.288 4.318-.334-.638zM.004 73.732l15.686-8.235.336.637L.339 74.37l-.335-.637zm71.544-48.901L117.675.719l.335.638-46.128 24.112-.334-.638zm-36.04 19.435L67.942 26.99l.34.636L35.847 44.9l-.34-.635zM23.61 51.107l9.01-5.038.352.627-9.01 5.039-.352-.628zM.008 63.653L21.82 52.54l.328.64L.336 64.295l-.328-.641zm78.026-52.137L99.295.36l.335.637-21.26 11.156-.335-.637zm-55.858 29.15l53.335-28.07.336.636-53.335 28.07-.336-.636zM9.917 47.507l9.73-5.398.35.63-9.73 5.398-.35-.63zM.003 52.86L7.4 48.943l.338.635L.34 53.495l-.338-.636zm52.798-37.382L79.468.723l.35.63L53.15 16.108l-.349-.63zM9.925 37.786l39.28-20.513.334.638-39.28 20.513-.334-.638zM.01 42.78l7.036-3.556.325.642-7.036 3.556-.326-.643zm40.185-32.343L60.015 0l.337.637L40.53 11.073l-.336-.636zM0 31.988l35.867-19.39.343.633L.343 32.62 0 31.988zm.004-7.92L44.52.72l.336.637L.339 24.706l-.335-.638zM.009 13.27L25.424.358l.327.641L.336 13.911l-.327-.641zM0 3.198L5.235.362l.344.633L.344 3.83 0 3.198zm.002 104.363l147.75-79.172.341.634L.343 108.195l-.341-.634zm75.677-28.79l72.073-38.866.343.633-72.074 38.867-.342-.634zM.001 119.077l72.074-38.866.343.633L.344 119.711 0 119.077zm45.587-11.467l102.155-59.063.361.623-102.155 59.063-.361-.623zm-19.107 11.88l16.577-10.077.375.615-16.577 10.076-.375-.614zm-9.611 5.756l7.811-4.678.371.617-7.812 4.679-.37-.618zM.284 134.959l15.215-8.637.356.626L.64 135.584l-.356-.625zm41.341-16.194l106.119-60.862.359.624-106.12 60.862-.358-.624zm-19.468 11.521l14.775-8.997.376.615-14.776 8.997-.375-.615zM.468 142.519l18.45-10.797.365.621L.832 143.14l-.364-.621zm68.712-29.508l79.281-47.504.371.617-79.281 47.504-.37-.617zm-31.167 18.355l27.749-16.914.375.614-27.749 16.914-.375-.614zM9.192 147.915l25.226-14.395.358.625L9.549 148.54l-.357-.625zm60.146-25.547l79.281-47.504.371.617-79.28 47.504-.372-.617zm-10.787 6.12l7.54-4.678.38.611-7.54 4.679-.38-.612zM38.349 140.72l16.965-10.076.368.618-16.965 10.077-.368-.619zm-11.514 6.961l7.9-5.038.388.607-7.9 5.038-.388-.607zm31.72-10.558l90.063-54.341.373.616-90.063 54.341-.373-.616zm-17.299 10.65l13.333-8.163.377.614-13.334 8.162-.376-.613zm22.704-5.972l84.658-51.102.373.616-84.658 51.102-.372-.616zm-9.73 6.585l6.666-4.081.377.614L54.606 149l-.376-.614zm30.636-11.625l63.755-37.427.365.62-63.755 37.427-.365-.62zm-11.897 8.027l6.666-4.082.377.614-6.667 4.081-.376-.613zm8.291 2.771l67.359-40.306.37.617-67.359 40.306-.37-.617zm10.81 0l56.548-33.829.371.618-56.548 33.828-.37-.617zm14.406-.354l42.133-26.991.389.606-42.133 26.99-.389-.605zm11.169.361l30.961-20.153.394.603-30.961 20.153-.394-.603zm6.494-.005l24.474-15.115.379.612-24.474 15.115-.379-.612zm8.287.001l16.186-10.077.381.611-16.185 10.077-.382-.611zm8.296.356l7.896-4.679.368.619-7.897 4.679-.367-.619z"/></g></svg>